<svg width="26" height="24" viewBox="0 0 26 24" fill="none" xmlns="http://www.w3.org/2000/svg">
<path fill-rule="evenodd" clip-rule="evenodd" d="M12.9898 0.649994C6.65178 0.649994 0.989777 4.87599 0.989777 10.657C0.989777 12.707 1.72878 14.72 3.03678 16.282L1.04378 22.65L7.98978 19.65C9.69478 20.089 11.3238 20.291 12.8538 20.291C20.0278 20.291 24.9898 15.852 24.9898 10.657C24.9898 4.84499 19.2888 0.649994 12.9898 0.649994ZM12.9898 1.64999C19.0548 1.64999 23.9898 5.69099 23.9898 10.657C23.9898 15.579 19.2028 19.291 12.8538 19.291C10.9728 19.291 9.45278 18.992 7.90778 18.596L2.64978 20.867L4.15478 16.059C2.84678 14.495 1.98978 12.931 1.98978 10.657C1.98978 5.69099 6.92478 1.64999 12.9898 1.64999Z" fill="black" stroke="black" stroke-width="1.3"/>
</svg>
