<svg width="26" height="24" viewBox="0 0 26 24" fill="none" xmlns="http://www.w3.org/2000/svg">
<path fill-rule="evenodd" clip-rule="evenodd" d="M12.65 21.243C7.01999 15.704 1.64999 10.946 1.64999 6.84099C1.64999 3.04999 4.71799 1.64999 6.93099 1.64999C8.24299 1.64999 11.082 2.15099 12.65 6.10699C14.24 2.13899 17.114 1.65999 18.376 1.65999C20.916 1.65999 23.65 3.28099 23.65 6.84099C23.65 10.91 18.514 15.466 12.65 21.243ZM18.376 0.659994C16.173 0.659994 13.93 1.70199 12.65 3.89799C11.365 1.69199 9.12799 0.649994 6.93099 0.649994C3.74799 0.649994 0.649994 2.83699 0.649994 6.84099C0.649994 11.502 6.22099 16.27 12.65 22.65C19.08 16.27 24.65 11.502 24.65 6.84099C24.65 2.82999 21.555 0.659994 18.376 0.659994Z" fill="black" stroke="black" stroke-width="1.3"/>
</svg>
